<svg height="511pt" viewBox="0 -26 511.99912 511" width="511pt" xmlns="http://www.w3.org/2000/svg"><path d="m378.269531 432.230469c-3.339843-2.449219-8.03125-1.734375-10.488281 1.605469-1 1.363281-2.152344 2.644531-3.414062 3.804687-4.839844 4.4375-11.121094 6.886719-17.683594 6.886719-7.316406 0-14.34375-3.089844-19.289063-8.476563-.554687-.605469-1.097656-1.214843-1.648437-1.824219-.046875-.058593-.101563-.113281-.152344-.167968-14.242188-15.832032-26.019531-32.640625-35.445312-50.648438-.199219-.507812-.453126-1-.765626-1.460937-9.925781-19.292969-17.171874-39.960938-21.882812-62.269531-1.160156-5.5-5.890625-9.335938-11.5-9.335938-5.613281 0-10.339844 3.835938-11.5 9.335938-4.710938 22.3125-11.960938 42.980468-21.886719 62.269531-.3125.460937-.5625.953125-.765625 1.460937-9.421875 18.007813-21.203125 34.816406-35.445312 50.648438-.050782.054687-.101563.109375-.152344.164062-.546875.609375-1.09375 1.222656-1.648438 1.828125-4.941406 5.386719-11.972656 8.476563-19.289062 8.476563-6.5625 0-12.839844-2.449219-17.679688-6.886719-10.632812-9.757813-11.34375-26.339844-1.589843-36.972656 25.136719-27.390625 40.839843-58.640625 48.003906-95.535157.632813-3.25-.941406-6.53125-3.875-8.070312s-6.527344-.972656-8.84375 1.394531c-12.734375 12.996094-28.132813 22.34375-44.972656 27.527344-.433594.085937-.851563.207031-1.253907.367187-9.71875 2.859376-19.902343 4.34375-30.320312 4.34375-10.429688 0-20.628906-1.484374-30.363281-4.34375-.128907-.039062-.261719-.078124-.394531-.113281-16.839844-5.015625-32.269532-14.164062-45.046876-26.9375-2.777343-2.78125-4.851562-6.070312-6.136718-9.65625-.035156-.117187-.074219-.234375-.121094-.351562-.945312-2.765625-1.429688-5.703125-1.402344-8.71875.058594-7.074219 2.894532-13.679688 7.988282-18.597657 10.058593-9.726562 26.746093-9.351562 37.195312.832032 10.296875 10.03125 23.890625 15.558594 38.277344 15.558594 10.960937 0 21.546875-3.234376 30.621094-9.355469 17.074218-11.523438 21.832031-35.160157 10.605468-52.691407-13.433594-20.96875-20.535156-45.273437-20.535156-70.289062 0-17.886719 3.550781-35.214844 10.550781-51.5 1.636719-3.804688-.121093-8.21875-3.925781-9.855469s-8.21875.125-9.851562 3.929688c-7.8125 18.167969-11.773438 37.488281-11.773438 57.425781 0 27.890625 7.921875 54.996094 22.902344 78.382812 6.871094 10.726563 4.015625 25.15625-6.363282 32.160157-6.582031 4.441406-14.269531 6.789062-22.226562 6.789062-10.457031 0-20.332031-4.011719-27.8125-11.300781-16.472656-16.050781-41.992188-16.4375-58.089844-.875-8.007812 7.742188-12.46875 18.132812-12.5625 29.257812-.03125 3.394532.351563 6.722657 1.113282 9.933594-11.257813 15.839844-9.660157 37.878906 4.375 51.917969 7.871093 7.871094 18.210937 11.808594 28.554687 11.808594 9.273437 0 18.539063-3.179688 26.03125-9.507813 5.03125 16.609375 20.320313 28.46875 38.605469 28.46875 19.964844 0 36.804687-14.851562 39.863281-34.085937 10.183594-3.53125 19.863281-8.414063 28.820313-14.570313-7.910157 24.703125-20.675782 46.488282-38.6875 66.117188-15.347657 16.726562-14.226563 42.816406 2.496093 58.164062 7.617188 6.988282 17.496094 10.835938 27.828125 10.835938 10.757813 0 21.121094-4.25 28.777344-11.726563 3.675781 1.054688 7.417969 1.585938 11.136719 1.585938 10.457031 0 20.695312-4.097657 28.464843-11.867188 14.125-14.125 15.523438-36.535156 4.082032-52.296875 7.640625-15.464844 13.699218-31.757812 18.222656-49 4.523438 17.242188 10.582031 33.535156 18.222656 49-11.445312 15.761719-10.042968 38.171875 4.082032 52.296875 7.769531 7.769531 18.007812 11.867188 28.464843 11.867188 3.714844 0 7.460938-.53125 11.132813-1.585938 7.65625 7.476563 18.023437 11.726563 28.78125 11.726563 10.328125 0 20.210937-3.847656 27.824218-10.835938 1.980469-1.816406 3.785157-3.824218 5.363282-5.972656 2.453125-3.339844 1.734375-8.035156-1.601563-10.488281zm-355.859375-100.542969c-6.605468-6.605469-8.816406-16.03125-6.542968-24.53125.789062.945312 1.621093 1.867188 2.503906 2.75 10.585937 10.585938 22.777344 18.984375 36.019531 24.980469-9.851563 6.542969-23.300781 5.476562-31.980469-3.199219zm82.585938 26.375c-9.976563 0-18.734375-5.933594-22.859375-14.453125 7.390625 1.375 14.960937 2.089844 22.640625 2.089844 7.851562 0 15.585937-.738281 23.125-2.179688-4.097656 8.574219-12.871094 14.542969-22.90625 14.542969zm118.09375 68.847656c-4.699219 4.699219-10.839844 7.253906-17.152344 7.441406 8.742188-10.652343 16.488281-21.71875 23.269531-33.253906 2.835938 8.804688.804688 18.890625-6.117187 25.8125zm65.820312 0c-6.921875-6.921875-8.957031-17.007812-6.117187-25.8125 6.78125 11.535156 14.527343 22.601563 23.269531 33.253906-6.316406-.1875-12.453125-2.742187-17.152344-7.441406zm48.117188-277.074218c4.140625 0 7.5-3.355469 7.5-7.5v-13.675782c0-4.140625-3.359375-7.5-7.5-7.5s-7.5 3.359375-7.5 7.5v13.675782c0 4.144531 3.359375 7.5 7.5 7.5zm-47.835938 2.964843c0-24.867187-22.417968-24.867187-33.191406-24.867187s-33.191406 0-33.191406 24.867187c0 19.988281 14.890625 36.246094 33.191406 36.246094s33.191406-16.257813 33.191406-36.246094zm-51.382812 0c0-7.160156 1.570312-9.867187 18.191406-9.867187s18.191406 2.707031 18.191406 9.867187c0 11.714844-8.160156 21.246094-18.191406 21.246094s-18.191406-9.53125-18.191406-21.246094zm-55.335938-10.464843v-13.675782c0-4.140625-3.359375-7.5-7.5-7.5-4.144531 0-7.503906 3.359375-7.503906 7.5v13.675782c0 4.144531 3.359375 7.5 7.503906 7.5 4.140625 0 7.5-3.355469 7.5-7.5zm322.09375 148.042968c.761719-3.210937 1.148438-6.542968 1.117188-9.933594-.09375-11.125-4.554688-21.519531-12.5625-29.257812-16.101563-15.5625-41.617188-15.175781-58.09375.875-7.476563 7.289062-17.355469 11.300781-27.808594 11.300781-7.957031 0-15.644531-2.347656-22.226562-6.789062-10.375-7-13.203126-21.46875-6.304688-32.253907 15.050781-23.542968 22.953125-50.816406 22.839844-78.875-.152344-38.195312-15.132813-74.292968-42.1875-101.648437-27.058594-27.355469-62.988282-42.726563-101.175782-43.28125-45.820312-.675781-88.300781 19.609375-116.625 55.628906-2.5625 3.253907-1.996093 7.96875 1.257813 10.53125 3.257813 2.5625 7.972656 1.996094 10.535156-1.257812 25.40625-32.3125 63.554688-50.476563 104.613281-49.902344 70.621094 1.027344 128.304688 59.339844 128.582032 129.988281.097656 25.171875-6.984375 49.628906-20.480469 70.734375-11.246094 17.585938-6.511719 41.257813 10.554687 52.773438 9.070313 6.121093 19.65625 9.355469 30.617188 9.355469 14.386719 0 27.980469-5.527344 38.277344-15.558594 10.449218-10.183594 27.136718-10.558594 37.195312-.832032 5.09375 4.917969 7.929688 11.523438 7.992188 18.597657.023437 3.015625-.460938 5.953125-1.40625 8.71875-.042969.117187-.082032.234375-.121094.351562-1.285156 3.589844-3.359375 6.878907-6.136719 9.65625-12.777343 12.777344-28.210937 21.925781-45.054687 26.941407-.125.03125-.246094.066406-.367188.105468-9.738281 2.863282-19.945312 4.351563-30.378906 4.351563s-20.632812-1.492188-30.363281-4.359375c-.382813-.148438-.785157-.265625-1.195313-.351563-16.851562-5.179687-32.253906-14.527343-44.992187-27.53125-2.316407-2.367187-5.910157-2.933593-8.84375-1.390625-2.933594 1.539063-4.507813 4.816406-3.875 8.070313 7.164062 36.890625 22.867187 68.140625 48.003906 95.535156 1.964844 2.140625 3.542969 4.5625 4.699219 7.195313 1.230468 2.8125 3.984375 4.492187 6.875 4.492187 1.003906 0 2.023437-.203125 3.003906-.632813 3.792969-1.660156 5.523438-6.085937 3.859375-9.878906-1.816406-4.148437-4.300781-7.957031-7.386719-11.320312-18.011718-19.628906-30.777344-41.414063-38.6875-66.117188 8.957032 6.15625 18.636719 11.039063 28.820313 14.570313 3.058593 19.234375 19.898437 34.085937 39.863281 34.085937 18.285156 0 33.570312-11.859375 38.605469-28.46875 7.492187 6.328125 16.757812 9.507813 26.03125 9.507813 10.34375 0 20.683593-3.9375 28.554687-11.808594 14.039063-14.039063 15.636719-36.078125 4.375-51.917969zm-97.5625 67.683594c-10.035156 0-18.808594-5.96875-22.90625-14.542969 7.539063 1.441407 15.273438 2.179688 23.121094 2.179688 7.683594 0 15.25-.714844 22.640625-2.09375-4.121094 8.523437-12.878906 14.457031-22.855469 14.457031zm82.582032-26.375c-8.675782 8.675781-22.125 9.742188-31.976563 3.199219 13.242187-5.996094 25.429687-14.394531 36.019531-24.980469.882813-.882812 1.714844-1.804688 2.503906-2.75 2.273438 8.5.058594 17.925781-6.546874 24.53125zm0 0"/></svg>